<svg width="106" height="106" viewBox="0 0 106 106" fill="none" xmlns="http://www.w3.org/2000/svg">
<path d="M15.9154 22.6012L22.7715 27.4545L18.9929 32.7924L17.9449 32.0506L20.8361 27.9663L19.1514 26.7738L17.7162 28.8012C17.1338 29.624 16.5194 30.125 15.8729 30.3045C15.2283 30.4951 14.5795 30.3593 13.9265 29.8971C13.254 29.421 12.9003 28.8129 12.8656 28.0728C12.8327 27.3438 13.1213 26.5484 13.7315 25.6864L15.9154 22.6012ZM16.0074 24.5482L14.7594 26.3112C14.4128 26.8009 14.244 27.2401 14.2531 27.6288C14.2622 28.0175 14.4463 28.339 14.8054 28.5932C15.5106 29.0924 16.2168 28.8425 16.924 27.8435L18.172 26.0805L16.0074 24.5482ZM14.8851 33.1986L13.0882 36.9682L11.9291 36.4157L13.726 32.6461L14.8851 33.1986ZM11.5838 31.7578L9.54416 36.0365L8.36344 35.4737L11.0743 29.7868L18.6569 33.4013L16.0183 38.9366L14.8376 38.3737L16.8049 34.2467L11.5838 31.7578ZM6.7161 40.6878C6.88705 40.071 7.14646 39.5244 7.49434 39.0481C7.84779 38.5815 8.26403 38.2029 8.74305 37.9123C9.22765 37.6316 9.75427 37.4538 10.3229 37.3789C10.8916 37.3041 11.4766 37.35 12.0779 37.5167C12.6792 37.6833 13.2044 37.9451 13.6534 38.302C14.1024 38.6589 14.4574 39.0852 14.7185 39.5809C14.9872 40.0788 15.1492 40.6177 15.2043 41.1975C15.2672 41.7794 15.2121 42.3826 15.039 43.007C14.8552 43.67 14.5719 44.2432 14.1889 44.7264C13.8136 45.2118 13.35 45.5814 12.7982 45.8353L12.1539 44.6107C12.5511 44.4053 12.8771 44.1429 13.1317 43.8233C13.394 43.5058 13.584 43.135 13.7015 42.711C13.819 42.287 13.8575 41.8785 13.817 41.4854C13.7744 41.1 13.6622 40.741 13.4805 40.4084C13.2966 40.0834 13.0515 39.7997 12.7452 39.557C12.4367 39.3221 12.0743 39.1469 11.658 39.0316C11.2417 38.9162 10.8409 38.8798 10.4555 38.9224C10.068 38.9727 9.71174 39.0898 9.38682 39.2737C9.05976 39.4653 8.77877 39.7154 8.54384 40.0238C8.30678 40.34 8.12949 40.7101 8.01197 41.1341C7.89445 41.5581 7.86256 41.9727 7.91632 42.3777C7.97779 42.7849 8.12982 43.1799 8.37242 43.5626L7.17806 44.2776C6.84333 43.778 6.63618 43.2225 6.55661 42.611C6.47704 41.9996 6.5302 41.3585 6.7161 40.6878ZM5.80806 45.2524L14.1808 45.9284L13.5831 53.3323L5.21031 52.6563L5.33392 51.1253L12.7737 51.726L12.362 52.0539L12.7705 46.9943L13.1243 47.3841L5.68446 46.7834L5.80806 45.2524ZM5.13458 54.6536C5.11835 54.5186 5.11403 54.3821 5.12163 54.2442C5.12923 54.1063 5.13936 53.956 5.15203 53.7934L6.51123 53.7387C6.49283 53.8538 6.49127 53.9748 6.50654 54.1019C6.54665 54.4355 6.71366 54.6853 7.00759 54.8514C7.30946 55.0166 7.73173 55.1109 8.2744 55.1343C8.81707 55.1577 9.47952 55.1385 10.2617 55.0767L13.7312 54.7804L14.4688 60.9163L6.12886 61.9189L5.94552 60.3938L13.3562 59.5029L13.0179 59.9062L12.5409 55.9388L12.9742 56.2251L10.486 56.4396C9.6571 56.5151 8.92365 56.5469 8.28566 56.5349C7.64768 56.523 7.10325 56.4515 6.65238 56.3203C6.2104 56.1962 5.86055 56.0006 5.60282 55.7334C5.34509 55.4663 5.18901 55.1063 5.13458 54.6536ZM6.28738 63.0639L15.4429 64.0763L15.9154 65.5378L9.08945 71.7302L8.58737 70.1773L14.7917 64.7535L14.9836 65.3473L6.78208 64.5939L6.28738 63.0639ZM8.67241 64.1214L9.96626 64.1445L11.3618 68.4605L10.3263 69.2367L8.67241 64.1214ZM10.3164 73.9123L16.9291 70.4505L16.7614 70.9582L15.3032 68.1728L16.4727 67.5606L19.7675 73.8543L18.598 74.4665L17.1398 71.6811L17.647 71.8219L11.0343 75.2837L10.3164 73.9123ZM23.3214 78.229L24.2779 79.4613L17.6422 84.6118L16.6857 83.3794L23.3214 78.229ZM14.0221 79.9478L13.0656 78.7155L19.7013 73.565L20.6578 74.7974L14.0221 79.9478ZM19.6031 81.2669L16.7851 77.6362L17.8373 76.8195L20.6553 80.4502L19.6031 81.2669ZM25.7059 84.3081C26.4822 84.9386 26.9402 85.5992 27.08 86.2899C27.2198 86.9806 27.0073 87.6737 26.4424 88.3692C25.8472 89.102 25.1629 89.4686 24.3895 89.4691C23.6274 89.4685 22.8333 89.1327 22.0075 88.4619L19.2038 86.1846L24.4997 79.6644L25.692 80.6328L23.8989 82.8404L25.7059 84.3081ZM22.7081 87.485C23.1739 87.8633 23.6223 88.0472 24.0534 88.0366C24.4908 88.0311 24.8784 87.8204 25.2163 87.4043C25.5492 86.9945 25.664 86.593 25.5607 86.1999C25.4625 85.8006 25.1774 85.4093 24.7055 85.026L23.1499 83.7625L21.1526 86.2216L22.7081 87.485ZM25.5749 91.3595L30.8709 84.8393L32.0631 85.8077L26.7672 92.3279L25.5749 91.3595ZM28.6377 93.4981L32.3071 85.942L33.6888 86.613L31.0835 91.9779L37.7475 88.5841L39.0537 89.2184L35.3842 96.7745L34.0025 96.1035L36.6026 90.7494L29.9438 94.1324L28.6377 93.4981ZM35.9106 87.065C35.2629 86.7505 34.84 86.3761 34.6418 85.9419C34.4507 85.5112 34.4722 85.0458 34.7061 84.5457L35.6884 85.0228C35.5663 85.2925 35.5531 85.5396 35.6487 85.7639C35.7515 85.9917 35.9576 86.1807 36.2671 86.331C36.5765 86.4813 36.8525 86.5264 37.0951 86.4663C37.3449 86.4098 37.5381 86.2501 37.6746 85.9873L38.6461 86.4591C38.3978 86.9522 38.0417 87.255 37.5778 87.3677C37.114 87.4804 36.5583 87.3795 35.9106 87.065ZM39.8648 97.4794L40.5871 96.4636C40.8901 96.7787 41.2356 97.0454 41.6238 97.2637C42.0213 97.4757 42.427 97.6281 42.8408 97.7209C43.2546 97.8137 43.6404 97.8437 43.9983 97.8108C44.364 97.7794 44.6696 97.6827 44.915 97.5207C45.1605 97.3586 45.3145 97.1247 45.3771 96.819C45.4524 96.4507 45.3557 96.1451 45.087 95.9023C44.8276 95.6532 44.4393 95.4758 43.922 95.3699L42.0057 94.9778L42.2511 93.7787L44.0498 94.1467C44.5122 94.2413 44.8881 94.2203 45.1774 94.0835C45.4745 93.9483 45.656 93.72 45.7217 93.3987C45.7762 93.1322 45.7349 92.8951 45.5978 92.6874C45.4685 92.4813 45.2676 92.3055 44.9953 92.1599C44.7308 92.016 44.4175 91.911 44.0553 91.8451C43.7026 91.7729 43.323 91.7524 42.9165 91.7836C42.5116 91.8069 42.1159 91.8852 41.7294 92.0184L41.4999 90.6853C42.0734 90.5168 42.6534 90.4355 43.2402 90.4412C43.8348 90.4486 44.3938 90.5303 44.9171 90.6863C45.4404 90.8424 45.8937 91.0617 46.2768 91.3443C46.6678 91.6284 46.9597 91.9576 47.1526 92.3319C47.3471 92.6983 47.4002 93.097 47.312 93.5281C47.2319 93.92 47.0547 94.2471 46.7805 94.5095C46.5158 94.7656 46.1864 94.9391 45.7921 95.0299C45.3979 95.1207 44.9618 95.1172 44.4837 95.0194L44.6194 94.6552C45.1602 94.7659 45.6113 94.9562 45.9725 95.2261C46.3432 95.4897 46.6053 95.8047 46.759 96.1709C46.9206 96.5388 46.9581 96.9343 46.8715 97.3575C46.7897 97.7572 46.6148 98.093 46.3469 98.3648C46.0806 98.6288 45.7494 98.8305 45.3534 98.97C44.959 99.1016 44.5241 99.1718 44.0487 99.1807C43.5749 99.1817 43.0896 99.1192 42.5928 98.993C42.096 98.8669 41.612 98.678 41.1409 98.4265C40.6776 98.1765 40.2522 97.8608 39.8648 97.4794ZM46.9743 99.7599L50.9604 91.4557L52.4959 91.4936L56.0795 99.9846L54.448 99.9443L51.3838 92.2944L52.0076 92.3098L48.5818 99.7995L46.9743 99.7599ZM48.7617 97.8594L49.2118 96.6461L53.7464 96.758L54.1361 97.992L48.7617 97.8594ZM57.2224 99.7565L55.6136 91.512L56.8621 91.2684L61.6523 96.5813L60.981 96.7123L63.3634 89.9997L64.6119 89.7561L66.2443 97.996L64.7838 98.281L63.6068 92.3119L63.913 92.2521L61.8793 97.8696L61.1961 98.0029L57.1525 93.5714L57.5059 93.5024L58.6711 99.4738L57.2224 99.7565ZM67.7709 92.2625L71.6239 90.6522L72.119 91.8369L68.266 93.4472L67.7709 92.2625ZM69.2698 95.5378L73.6432 93.71L74.1476 94.9168L68.3349 97.3462L65.0956 89.5959L70.7534 87.2313L71.2578 88.4381L67.0394 90.2012L69.2698 95.5378ZM75.5368 94.114L70.9963 87.0469L73.9039 85.1788C74.5298 84.7767 75.1297 84.5338 75.7037 84.4503C76.2844 84.3625 76.8169 84.4292 77.3014 84.6505C77.7859 84.8717 78.1946 85.2414 78.5276 85.7597C78.8605 86.2779 79.027 86.8034 79.0268 87.3359C79.0267 87.8685 78.866 88.3806 78.5448 88.8723C78.2303 89.3596 77.7601 89.8044 77.1342 90.2065L74.9535 91.6076L75.1433 90.6156L76.8493 93.2707L75.5368 94.114ZM75.2342 90.7569L74.2399 90.4971L76.3601 89.1349C76.9389 88.763 77.2952 88.3629 77.4289 87.9347C77.565 87.4954 77.4904 87.0536 77.205 86.6094C76.9153 86.1585 76.5445 85.907 76.0927 85.855C75.6476 85.7986 75.1356 85.9564 74.5568 86.3283L72.4367 87.6904L72.6071 86.6681L75.2342 90.7569ZM86.5796 89.0211L78.8088 80.9112L79.8052 79.9564L87.576 88.0664L86.5796 89.0211ZM89.5274 82.3588L82.6533 77.5311L86.4121 72.1791L87.4628 72.9171L84.5869 77.0121L86.2759 78.1983L87.7035 76.1655C88.2829 75.3407 88.8955 74.8373 89.5413 74.6554C90.1852 74.4624 90.8345 74.5958 91.4891 75.0556C92.1635 75.5292 92.5194 76.136 92.5569 76.876C92.5925 77.6048 92.3068 78.4013 91.6999 79.2655L89.5274 82.3588ZM89.4282 80.4122L90.6696 78.6445C91.0144 78.1535 91.1816 77.7137 91.171 77.3251C91.1605 76.9364 90.9752 76.6156 90.6151 76.3627C89.9081 75.8662 89.2028 76.1187 88.4993 77.1204L87.2579 78.888L89.4282 80.4122ZM90.4951 71.7747L92.2579 67.989L93.4219 68.531L91.6591 72.3167L90.4951 71.7747ZM93.8093 73.1856L95.8101 68.8885L96.9959 69.4407L94.3366 75.1519L86.7216 71.6061L89.31 66.0472L90.4958 66.5993L88.5659 70.7441L93.8093 73.1856ZM98.6042 64.2125C98.4379 64.8305 98.1826 65.379 97.8383 65.858C97.4883 66.3272 97.075 66.7089 96.5981 67.0031C96.1157 67.2875 95.5904 67.4692 95.0223 67.5484C94.4542 67.6275 93.8689 67.5859 93.2664 67.4238C92.6638 67.2617 92.1367 67.0038 91.685 66.6503C91.2334 66.2968 90.8751 65.8732 90.6103 65.3794C90.3378 64.8836 90.1718 64.346 90.1123 63.7666C90.0451 63.1852 90.0957 62.5816 90.2641 61.9558C90.4428 61.2915 90.7219 60.7162 91.1012 60.2301C91.4729 59.7419 91.9336 59.3688 92.4836 59.1108L93.1371 60.3305C92.7413 60.5389 92.4174 60.8038 92.1652 61.1253C91.9052 61.4447 91.7181 61.8169 91.6038 62.2418C91.4894 62.6667 91.454 63.0755 91.4974 63.4683C91.5429 63.8533 91.6578 64.2115 91.8421 64.5427C92.0284 64.8663 92.2756 65.1482 92.5838 65.3885C92.894 65.6211 93.2577 65.7935 93.6748 65.9058C94.092 66.018 94.4931 66.0514 94.8782 66.0059C95.2653 65.9527 95.6206 65.8329 95.9441 65.6466C96.2698 65.4525 96.5489 65.2004 96.7815 64.8902C97.0161 64.5722 97.1906 64.2008 97.305 63.7759C97.4193 63.351 97.4481 62.9362 97.3913 62.5316C97.3267 62.1249 97.1717 61.731 96.9263 61.3502L98.1152 60.6263C98.4537 61.1233 98.665 61.6772 98.7492 62.2881C98.8334 62.8989 98.785 63.5404 98.6042 64.2125ZM99.4782 59.6396L91.1005 59.0274L91.6419 51.6191L100.02 52.2314L99.9076 53.7633L92.4634 53.2193L92.8727 52.8882L92.5027 57.9507L92.146 57.5637L99.5901 58.1077L99.4782 59.6396ZM100.081 50.2331C100.098 50.368 100.103 50.5044 100.096 50.6424C100.09 50.7803 100.081 50.9307 100.069 51.0934L98.7105 51.1579C98.7281 51.0427 98.7288 50.9217 98.7126 50.7947C98.67 50.4614 98.5012 50.2127 98.2061 50.0488C97.9031 49.8858 97.4801 49.7946 96.9373 49.7751C96.3945 49.7556 95.7322 49.7796 94.9504 49.847L91.4832 50.1683L90.7013 44.038L99.0338 42.9752L99.2282 44.4989L91.8241 45.4432L92.1595 45.0375L92.6651 49.0014L92.2297 48.7182L94.7163 48.4857C95.5447 48.4043 96.2779 48.3672 96.9159 48.3745C97.554 48.3819 98.0989 48.4495 98.5507 48.5773C98.9936 48.6983 99.3448 48.8914 99.6045 49.1567C99.8641 49.422 100.023 49.7808 100.081 50.2331ZM98.8669 41.8306L89.704 40.8875L89.2204 39.4296L95.9993 33.1858L96.5132 34.7348L90.3501 40.2054L90.1536 39.6131L98.3606 40.3044L98.8669 41.8306ZM96.4739 40.7911L95.18 40.7778L93.7518 36.4725L94.7814 35.6885L96.4739 40.7911ZM94.758 31.0114L88.1687 34.5174L88.333 34.0086L89.8098 36.7842L88.6445 37.4042L85.3076 31.1327L86.4729 30.5126L87.9497 33.2882L87.4416 33.1508L94.0309 29.6448L94.758 31.0114ZM81.724 26.7896L80.7584 25.5643L87.3557 20.3648L88.3213 21.59L81.724 26.7896ZM91.0102 25.0017L91.9759 26.227L85.3786 31.4265L84.4129 30.2013L91.0102 25.0017ZM85.4196 23.7241L88.2645 27.3338L87.2184 28.1583L84.3735 24.5486L85.4196 23.7241ZM79.2944 20.7294C78.5134 20.1048 78.0504 19.4477 77.9054 18.7581C77.7603 18.0685 77.9676 17.3738 78.5272 16.674C79.1167 15.9367 79.7982 15.5649 80.5716 15.5585C81.3337 15.5534 82.1303 15.8831 82.9612 16.5476L85.7821 18.8035L80.5359 25.3637L79.3363 24.4044L81.1126 22.1833L79.2944 20.7294ZM82.268 17.5297C81.7994 17.155 81.3496 16.9746 80.9186 16.9884C80.4813 16.9972 80.0952 17.2109 79.7605 17.6295C79.4307 18.0419 79.319 18.4442 79.4253 18.8365C79.5265 19.2351 79.8146 19.6242 80.2894 20.0039L81.8545 21.2555L83.8331 18.7813L82.268 17.5297ZM79.3718 13.6772L74.1256 20.2374L72.926 19.2781L78.1722 12.7179L79.3718 13.6772ZM76.2936 11.5614L72.6763 19.1426L71.2901 18.4812L73.8583 13.0985L67.2178 16.5382L65.9074 15.9129L69.5246 8.33169L70.9109 8.99314L68.3478 14.365L74.9831 10.9361L76.2936 11.5614ZM69.0652 18.0446C69.7151 18.3546 70.1406 18.7261 70.3418 19.1589C70.5358 19.5883 70.5175 20.0538 70.2871 20.5555L69.3015 20.0852C69.4217 19.8146 69.4333 19.5675 69.3361 19.3439C69.2317 19.1168 69.0243 18.9292 68.7138 18.781C68.4034 18.6329 68.127 18.5897 67.8849 18.6514C67.6354 18.7097 67.4434 18.8707 67.3087 19.1344L66.334 18.6693C66.5789 18.1746 66.9329 17.8692 67.3959 17.7533C67.859 17.6374 68.4154 17.7345 69.0652 18.0446ZM65.0411 7.65303L64.3257 8.67375C64.0206 8.36069 63.6732 8.09637 63.2836 7.88078C62.8846 7.6715 62.4779 7.52185 62.0635 7.43183C61.6491 7.34182 61.2631 7.3145 60.9054 7.34987C60.54 7.38369 60.235 7.48247 59.9907 7.64622C59.7463 7.80997 59.5939 8.04489 59.5334 8.35098C59.4606 8.71985 59.5594 9.02477 59.8298 9.26575C60.0908 9.51302 60.4803 9.68781 60.9983 9.79012L62.9172 10.1692L62.6801 11.37L60.8789 11.0142C60.4158 10.9227 60.0401 10.9464 59.7517 11.0851C59.4555 11.2223 59.2757 11.4518 59.2121 11.7736C59.1594 12.0404 59.2023 12.2772 59.3409 12.484C59.4716 12.6892 59.6736 12.8637 59.947 13.0074C60.2124 13.1495 60.5265 13.2523 60.889 13.3158C61.2422 13.3855 61.6219 13.4035 62.0282 13.3695C62.4329 13.3435 62.8281 13.2625 63.2138 13.1267L63.4523 14.4581C62.88 14.6305 62.3005 14.7158 61.7137 14.7141C61.1191 14.7108 60.5596 14.6329 60.0352 14.4804C59.5108 14.3279 59.0561 14.1117 58.671 13.8317C58.2781 13.5503 57.9839 13.2231 57.7885 12.8501C57.5915 12.485 57.5357 12.0867 57.6209 11.655C57.6984 11.2626 57.8734 10.9343 58.1457 10.67C58.4087 10.4121 58.737 10.2364 59.1306 10.1429C59.5241 10.0494 59.9603 10.0499 60.4391 10.1445L60.3058 10.5096C59.7642 10.4026 59.3119 10.2154 58.9489 9.94798C58.5764 9.68685 58.3121 9.37369 58.1559 9.0085C57.9919 8.64176 57.9517 8.24649 58.0354 7.82268C58.1145 7.42241 58.287 7.08546 58.5531 6.81184C58.8176 6.54606 59.1474 6.34209 59.5424 6.19995C59.9359 6.06565 60.3703 5.99245 60.8457 5.98033C61.3195 5.97607 61.8052 6.03531 62.3029 6.15808C62.8005 6.28084 63.2858 6.46638 63.7586 6.71472C64.2236 6.9615 64.6511 7.27427 65.0411 7.65303ZM57.9155 5.42097L53.9883 13.7532L52.4526 13.7262L48.8089 5.26077L50.4406 5.28947L53.5589 12.9175L52.935 12.9065L56.3077 5.39269L57.9155 5.42097ZM56.1416 7.33407L55.7001 8.55049L51.1648 8.4707L50.7664 7.23951L56.1416 7.33407ZM47.6657 5.49642L49.3293 13.73L48.0825 13.982L43.2571 8.70102L43.9275 8.56556L41.5897 15.2938L40.3429 15.5457L38.6558 7.31687L40.1143 7.02218L41.331 12.9833L41.0252 13.0451L43.0215 7.41418L43.7037 7.27634L47.7767 11.6809L47.4239 11.7522L46.2189 5.78874L47.6657 5.49642ZM37.1865 13.0629L33.3509 14.7143L32.8431 13.535L36.6787 11.8836L37.1865 13.0629ZM35.6526 9.80381L31.299 11.6783L30.7817 10.4769L36.5681 7.98551L39.89 15.7008L34.2579 18.1257L33.7406 16.9244L37.9399 15.1163L35.6526 9.80381ZM29.3977 11.2903L33.9816 18.3293L31.0856 20.2153C30.4621 20.6213 29.8637 20.8678 29.2903 20.9548C28.7102 21.0462 28.1772 20.9828 27.6914 20.7645C27.2056 20.5463 26.7946 20.179 26.4584 19.6628C26.1223 19.1466 25.9526 18.6223 25.9495 18.0897C25.9463 17.5571 26.1039 17.044 26.422 16.5504C26.7335 16.0612 27.201 15.6135 27.8244 15.2075L29.9965 13.793L29.8127 14.7862L28.0904 12.1416L29.3977 11.2903ZM29.721 14.6455L30.7168 14.8992L28.6051 16.2744C28.0286 16.6498 27.6748 17.0521 27.5437 17.4811C27.4102 17.9212 27.4876 18.3625 27.7757 18.805C28.0682 19.2541 28.4405 19.5033 28.8927 19.5526C29.3381 19.6062 29.8491 19.4453 30.4256 19.0698L32.5373 17.6946L32.3732 18.718L29.721 14.6455ZM18.3857 16.4541L26.2204 24.5025L25.2315 25.4651L17.3969 17.4167L18.3857 16.4541Z" fill="#487B94"/>
</svg>
